<!DOCTYPE svg PUBLIC "-//W3C//DTD SVG 1.1//EN" "http://www.w3.org/Graphics/SVG/1.1/DTD/svg11.dtd">

<!-- Uploaded to: SVG Repo, www.svgrepo.com, Transformed by: SVG Repo Mixer Tools -->
<svg fill="#C49D3F" height="800px" width="800px" version="1.1" id="Layer_1" xmlns="http://www.w3.org/2000/svg" xmlns:xlink="http://www.w3.org/1999/xlink" viewBox="0 0 512 512" xml:space="preserve">

<g id="SVGRepo_bgCarrier" stroke-width="0"/>

<g id="SVGRepo_tracerCarrier" stroke-linecap="round" stroke-linejoin="round"/>

<g id="SVGRepo_iconCarrier"> <g> <g> <g> <path d="M444.211,18.369c-4.477,0-8.895,0.525-13.204,1.565C417.261,7.191,399.116,0,380.235,0 c-41.173,0-74.67,33.497-74.67,74.67c0,0.146,0,0.293,0.001,0.442c-3.717,2.012-7.14,4.446-10.243,7.208l-49.253-47.125 c-7.22-6.907-18.531-6.907-25.751,0l-80.863,77.369V53.285c0-5.906-4.787-10.693-10.693-10.693H85.993 c-5.906,0-10.693,4.787-10.693,10.693v120.662l-60.513,57.899c-2.05,1.96-3.236,4.656-3.298,7.49 c-0.062,2.835,1.003,5.579,2.964,7.628l36.96,38.629c2.067,2.16,4.822,3.26,7.594,3.295v153.609H48.748 c-5.906,0-10.693,4.787-10.693,10.693v48.117c0,5.906,4.787,10.693,10.693,10.693h368.897c5.906,0,10.693-4.787,10.693-10.693 V453.19c0-5.906-4.787-10.693-10.693-10.693h-10.261V288.887c2.771-0.034,5.526-1.133,7.594-3.294l36.96-38.629 c1.96-2.049,3.027-4.792,2.964-7.628c-0.063-2.836-1.249-5.529-3.298-7.49l-42.232-40.406 c28.732-7.544,50.378-32.757,52.527-63.288c22.836-7.452,38.613-28.675,38.613-53.483 C500.513,43.625,475.255,18.369,444.211,18.369z M96.686,63.977h21.385v69.047l-21.385,20.461V63.977z M406.952,490.615H59.44 v-26.732h347.512V490.615z M219.652,292.443h-88.393c-5.906,0-10.693,4.787-10.693,10.693v139.361H80.392V272.665 l152.802-146.201l152.802,146.201v169.833H230.344V303.136C230.344,297.23,225.557,292.443,219.652,292.443z M208.959,313.829 v128.669h-67.008V313.829H208.959z M429.094,239.905l-22.177,23.178L240.588,103.94c-2.067-1.978-4.729-2.966-7.392-2.966 s-5.325,0.989-7.392,2.966L59.473,263.083l-22.177-23.177L233.196,52.471L429.094,239.905z M449.636,109.165 c-5.433,0.845-9.339,5.672-9.032,11.162c0.058,1.037,0.087,1.959,0.087,2.816c0,27.153-22.09,49.243-49.243,49.243 c-0.69,0-1.372-0.036-2.055-0.064l-20.18-19.309l40.775-40.775c0.093-0.093,0.173-0.195,0.263-0.291 c0.096-0.089,0.197-0.169,0.291-0.263c4.175-4.175,4.175-10.946,0-15.123l-34.126-34.126c-4.175-4.175-10.946-4.175-15.123,0 c-4.175,4.175-4.175,10.946,0,15.123l26.565,26.565l-34.102,34.101L310.85,97.173c2.785-2.232,5.955-4.034,9.433-5.284 c4.658-1.673,7.559-6.326,7.011-11.245c-0.228-2.047-0.343-4.057-0.343-5.974c0-29.381,23.903-53.285,53.285-53.285 c15.144,0,29.627,6.487,39.737,17.8c2.955,3.307,7.646,4.448,11.789,2.864c3.985-1.522,8.175-2.295,12.452-2.295 c19.252,0,34.915,15.663,34.915,34.915C479.127,91.718,466.448,106.548,449.636,109.165z"/> <path d="M272.647,230.728c6.604-16.455,2.748-34.29-10.064-46.548c-16.478-15.766-42.296-15.767-58.775,0 c-12.811,12.257-16.667,30.093-10.064,46.548c6.604,16.455,21.72,26.676,39.452,26.676S266.043,247.182,272.647,230.728z M213.592,222.763c-2.572-6.408-2.609-15.85,5.001-23.13c4.095-3.918,9.35-5.877,14.604-5.877c5.254,0,10.509,1.959,14.604,5.877 c7.608,7.28,7.57,16.721,4.999,23.13c-2.572,6.408-9.073,13.256-19.604,13.256S216.164,229.172,213.592,222.763z"/> <path d="M260.64,288.166v112.629c0,5.906,4.787,10.693,10.693,10.693h82.588c5.906,0,10.693-4.787,10.693-10.693V288.166 c0-5.906-4.787-10.693-10.693-10.693h-82.588C265.427,277.474,260.64,282.261,260.64,288.166z M282.025,298.859h61.203v46.869 h-61.203V298.859z M282.025,367.113h61.203v22.99h-61.203V367.113z"/> <path d="M421.844,70.134l-0.959,0.959c-4.175,4.175-4.175,10.946,0,15.123c2.088,2.088,4.825,3.132,7.561,3.132 s5.474-1.044,7.561-3.132l0.959-0.959c4.175-4.175,4.175-10.946,0-15.123C432.791,65.958,426.021,65.959,421.844,70.134z"/> </g> </g> </g> </g>

</svg>